solid OpenSCAD_Model
  facet normal 1 -0 0
    outer loop
      vertex 21.7 0 2
      vertex 21.7 15 0
      vertex 21.7 15 2
    endloop
  endfacet
  facet normal 1 0 0
    outer loop
      vertex 21.7 15 0
      vertex 21.7 0 2
      vertex 21.7 0 0
    endloop
  endfacet
  facet normal -0 0 1
    outer loop
      vertex 0 15 2
      vertex 21.7 0 2
      vertex 21.7 15 2
    endloop
  endfacet
  facet normal 0 0 1
    outer loop
      vertex 21.7 0 2
      vertex 0 15 2
      vertex 0 0 2
    endloop
  endfacet
  facet normal 0 0 -1
    outer loop
      vertex 1.5 0 0
      vertex 21.7 15 0
      vertex 21.7 0 0
    endloop
  endfacet
  facet normal -0 0 -1
    outer loop
      vertex 21.7 15 0
      vertex 1.5 0 0
      vertex 1.5 15 0
    endloop
  endfacet
  facet normal 0 0 -1
    outer loop
      vertex -2 0 0
      vertex -1.5 15 0
      vertex -1.5 0 0
    endloop
  endfacet
  facet normal -0 0 -1
    outer loop
      vertex -1.5 15 0
      vertex -2 0 0
      vertex -2 15 0
    endloop
  endfacet
  facet normal 1 0 0
    outer loop
      vertex 0 15 26
      vertex 0 13.5 16
      vertex 0 15 2
    endloop
  endfacet
  facet normal 1 0 0
    outer loop
      vertex 0 15 26
      vertex 0 13.4831 16.3431
      vertex 0 13.5 16
    endloop
  endfacet
  facet normal 1 0 0
    outer loop
      vertex 0 15 26
      vertex 0 13.4327 16.6828
      vertex 0 13.4831 16.3431
    endloop
  endfacet
  facet normal 1 0 0
    outer loop
      vertex 0 15 26
      vertex 0 13.3493 17.016
      vertex 0 13.4327 16.6828
    endloop
  endfacet
  facet normal 1 0 0
    outer loop
      vertex 0 15 26
      vertex 0 13.2336 17.3394
      vertex 0 13.3493 17.016
    endloop
  endfacet
  facet normal 1 0 0
    outer loop
      vertex 0 15 26
      vertex 0 13.0867 17.6499
      vertex 0 13.2336 17.3394
    endloop
  endfacet
  facet normal 1 0 0
    outer loop
      vertex 0 15 26
      vertex 0 12.9101 17.9445
      vertex 0 13.0867 17.6499
    endloop
  endfacet
  facet normal 1 0 0
    outer loop
      vertex 0 15 26
      vertex 0 12.7055 18.2204
      vertex 0 12.9101 17.9445
    endloop
  endfacet
  facet normal 1 0 0
    outer loop
      vertex 0 15 26
      vertex 0 12.4749 18.4749
      vertex 0 12.7055 18.2204
    endloop
  endfacet
  facet normal 1 0 0
    outer loop
      vertex 0 15 26
      vertex 0 12.2204 18.7055
      vertex 0 12.4749 18.4749
    endloop
  endfacet
  facet normal 1 0 0
    outer loop
      vertex 0 15 26
      vertex 0 11.9445 18.9101
      vertex 0 12.2204 18.7055
    endloop
  endfacet
  facet normal 1 0 0
    outer loop
      vertex 0 15 26
      vertex 0 11.6499 19.0867
      vertex 0 11.9445 18.9101
    endloop
  endfacet
  facet normal 1 0 0
    outer loop
      vertex 0 15 26
      vertex 0 11.3394 19.2336
      vertex 0 11.6499 19.0867
    endloop
  endfacet
  facet normal 1 0 0
    outer loop
      vertex 0 15 26
      vertex 0 11.016 19.3493
      vertex 0 11.3394 19.2336
    endloop
  endfacet
  facet normal 1 0 0
    outer loop
      vertex 0 15 26
      vertex 0 10.6828 19.4327
      vertex 0 11.016 19.3493
    endloop
  endfacet
  facet normal 1 0 0
    outer loop
      vertex 0 15 26
      vertex 0 10.3431 19.4831
      vertex 0 10.6828 19.4327
    endloop
  endfacet
  facet normal 1 0 0
    outer loop
      vertex 0 15 26
      vertex 0 10 19.5
      vertex 0 10.3431 19.4831
    endloop
  endfacet
  facet normal 1 0 0
    outer loop
      vertex 0 15 26
      vertex 0 5 19.5
      vertex 0 10 19.5
    endloop
  endfacet
  facet normal 1 -0 0
    outer loop
      vertex 0 0 26
      vertex 0 5 19.5
      vertex 0 15 26
    endloop
  endfacet
  facet normal 1 0 0
    outer loop
      vertex 0 5 19.5
      vertex 0 0 26
      vertex 0 4.65694 19.4831
    endloop
  endfacet
  facet normal 1 0 0
    outer loop
      vertex 0 4.65694 19.4831
      vertex 0 0 26
      vertex 0 4.31718 19.4327
    endloop
  endfacet
  facet normal 1 0 0
    outer loop
      vertex 0 4.31718 19.4327
      vertex 0 0 26
      vertex 0 3.984 19.3493
    endloop
  endfacet
  facet normal 1 0 0
    outer loop
      vertex 0 3.984 19.3493
      vertex 0 0 26
      vertex 0 3.66061 19.2336
    endloop
  endfacet
  facet normal 1 0 0
    outer loop
      vertex 0 1.51685 16.3431
      vertex 0 0 26
      vertex 0 1.5 16
    endloop
  endfacet
  facet normal 1 0 0
    outer loop
      vertex 0 1.56725 16.6828
      vertex 0 0 26
      vertex 0 1.51685 16.3431
    endloop
  endfacet
  facet normal 1 0 0
    outer loop
      vertex 0 1.65071 17.016
      vertex 0 0 26
      vertex 0 1.56725 16.6828
    endloop
  endfacet
  facet normal 1 0 0
    outer loop
      vertex 0 1.76642 17.3394
      vertex 0 0 26
      vertex 0 1.65071 17.016
    endloop
  endfacet
  facet normal 1 0 0
    outer loop
      vertex 0 1.91327 17.6499
      vertex 0 0 26
      vertex 0 1.76642 17.3394
    endloop
  endfacet
  facet normal 1 0 0
    outer loop
      vertex 0 2.08986 17.9445
      vertex 0 0 26
      vertex 0 1.91327 17.6499
    endloop
  endfacet
  facet normal 1 0 0
    outer loop
      vertex 0 2.29446 18.2204
      vertex 0 0 26
      vertex 0 2.08986 17.9445
    endloop
  endfacet
  facet normal 1 0 0
    outer loop
      vertex 0 2.52513 18.4749
      vertex 0 0 26
      vertex 0 2.29446 18.2204
    endloop
  endfacet
  facet normal 1 0 0
    outer loop
      vertex 0 2.77962 18.7055
      vertex 0 0 26
      vertex 0 2.52513 18.4749
    endloop
  endfacet
  facet normal 1 0 0
    outer loop
      vertex 0 3.0555 18.9101
      vertex 0 0 26
      vertex 0 2.77962 18.7055
    endloop
  endfacet
  facet normal 1 0 0
    outer loop
      vertex 0 3.35011 19.0867
      vertex 0 0 26
      vertex 0 3.0555 18.9101
    endloop
  endfacet
  facet normal 1 0 0
    outer loop
      vertex 0 3.66061 19.2336
      vertex 0 0 26
      vertex 0 3.35011 19.0867
    endloop
  endfacet
  facet normal 1 -0 0
    outer loop
      vertex 0 13.4831 15.6569
      vertex 0 15 2
      vertex 0 13.5 16
    endloop
  endfacet
  facet normal 1 -0 0
    outer loop
      vertex 0 13.4327 15.3172
      vertex 0 15 2
      vertex 0 13.4831 15.6569
    endloop
  endfacet
  facet normal 1 -0 0
    outer loop
      vertex 0 13.3493 14.984
      vertex 0 15 2
      vertex 0 13.4327 15.3172
    endloop
  endfacet
  facet normal 1 -0 0
    outer loop
      vertex 0 13.2336 14.6606
      vertex 0 15 2
      vertex 0 13.3493 14.984
    endloop
  endfacet
  facet normal 1 -0 0
    outer loop
      vertex 0 13.0867 14.3501
      vertex 0 15 2
      vertex 0 13.2336 14.6606
    endloop
  endfacet
  facet normal 1 -0 0
    outer loop
      vertex 0 12.9101 14.0555
      vertex 0 15 2
      vertex 0 13.0867 14.3501
    endloop
  endfacet
  facet normal 1 -0 0
    outer loop
      vertex 0 12.7055 13.7796
      vertex 0 15 2
      vertex 0 12.9101 14.0555
    endloop
  endfacet
  facet normal 1 -0 0
    outer loop
      vertex 0 12.4749 13.5251
      vertex 0 15 2
      vertex 0 12.7055 13.7796
    endloop
  endfacet
  facet normal 1 -0 0
    outer loop
      vertex 0 12.2204 13.2945
      vertex 0 15 2
      vertex 0 12.4749 13.5251
    endloop
  endfacet
  facet normal 1 -0 0
    outer loop
      vertex 0 11.9445 13.0899
      vertex 0 15 2
      vertex 0 12.2204 13.2945
    endloop
  endfacet
  facet normal 1 -0 0
    outer loop
      vertex 0 11.6499 12.9133
      vertex 0 15 2
      vertex 0 11.9445 13.0899
    endloop
  endfacet
  facet normal 1 -0 0
    outer loop
      vertex 0 11.3394 12.7664
      vertex 0 15 2
      vertex 0 11.6499 12.9133
    endloop
  endfacet
  facet normal 1 -0 0
    outer loop
      vertex 0 11.016 12.6507
      vertex 0 15 2
      vertex 0 11.3394 12.7664
    endloop
  endfacet
  facet normal 1 -0 0
    outer loop
      vertex 0 10.6828 12.5673
      vertex 0 15 2
      vertex 0 11.016 12.6507
    endloop
  endfacet
  facet normal 1 -0 0
    outer loop
      vertex 0 10.3431 12.5169
      vertex 0 15 2
      vertex 0 10.6828 12.5673
    endloop
  endfacet
  facet normal 1 -0 0
    outer loop
      vertex 0 10 12.5
      vertex 0 15 2
      vertex 0 10.3431 12.5169
    endloop
  endfacet
  facet normal 1 -0 0
    outer loop
      vertex 0 5 12.5
      vertex 0 15 2
      vertex 0 10 12.5
    endloop
  endfacet
  facet normal 1 0 0
    outer loop
      vertex 0 0 2
      vertex 0 5 12.5
      vertex 0 4.65694 12.5169
    endloop
  endfacet
  facet normal 1 0 0
    outer loop
      vertex 0 0 2
      vertex 0 4.65694 12.5169
      vertex 0 4.31718 12.5673
    endloop
  endfacet
  facet normal 1 0 0
    outer loop
      vertex 0 0 2
      vertex 0 4.31718 12.5673
      vertex 0 3.984 12.6507
    endloop
  endfacet
  facet normal 1 0 0
    outer loop
      vertex 0 0 2
      vertex 0 3.984 12.6507
      vertex 0 3.66061 12.7664
    endloop
  endfacet
  facet normal 1 0 0
    outer loop
      vertex 0 0 2
      vertex 0 3.66061 12.7664
      vertex 0 3.35011 12.9133
    endloop
  endfacet
  facet normal 1 0 0
    outer loop
      vertex 0 0 2
      vertex 0 3.35011 12.9133
      vertex 0 3.0555 13.0899
    endloop
  endfacet
  facet normal 1 0 0
    outer loop
      vertex 0 0 2
      vertex 0 3.0555 13.0899
      vertex 0 2.77962 13.2945
    endloop
  endfacet
  facet normal 1 0 0
    outer loop
      vertex 0 0 2
      vertex 0 2.77962 13.2945
      vertex 0 2.52513 13.5251
    endloop
  endfacet
  facet normal 1 0 0
    outer loop
      vertex 0 0 2
      vertex 0 1.5 16
      vertex 0 0 26
    endloop
  endfacet
  facet normal 1 0 0
    outer loop
      vertex 0 5 12.5
      vertex 0 0 2
      vertex 0 15 2
    endloop
  endfacet
  facet normal 1 0 0
    outer loop
      vertex 0 2.29446 13.7796
      vertex 0 0 2
      vertex 0 2.52513 13.5251
    endloop
  endfacet
  facet normal 1 0 0
    outer loop
      vertex 0 2.08986 14.0555
      vertex 0 0 2
      vertex 0 2.29446 13.7796
    endloop
  endfacet
  facet normal 1 0 0
    outer loop
      vertex 0 1.91327 14.3501
      vertex 0 0 2
      vertex 0 2.08986 14.0555
    endloop
  endfacet
  facet normal 1 0 0
    outer loop
      vertex 0 1.76642 14.6606
      vertex 0 0 2
      vertex 0 1.91327 14.3501
    endloop
  endfacet
  facet normal 1 0 0
    outer loop
      vertex 0 1.65071 14.984
      vertex 0 0 2
      vertex 0 1.76642 14.6606
    endloop
  endfacet
  facet normal 1 0 0
    outer loop
      vertex 0 1.56725 15.3172
      vertex 0 0 2
      vertex 0 1.65071 14.984
    endloop
  endfacet
  facet normal 1 0 0
    outer loop
      vertex 0 1.51685 15.6569
      vertex 0 0 2
      vertex 0 1.56725 15.3172
    endloop
  endfacet
  facet normal 1 0 0
    outer loop
      vertex 0 1.5 16
      vertex 0 0 2
      vertex 0 1.51685 15.6569
    endloop
  endfacet
  facet normal 0 1 0
    outer loop
      vertex 1.5 15 0
      vertex 21.7 15 2
      vertex 21.7 15 0
    endloop
  endfacet
  facet normal 0 1 -0
    outer loop
      vertex 0 15 2
      vertex -2 15 26
      vertex 0 15 26
    endloop
  endfacet
  facet normal 0 1 0
    outer loop
      vertex 21.7 15 2
      vertex 1.5 15 0
      vertex 0 15 2
    endloop
  endfacet
  facet normal 0 1 0
    outer loop
      vertex -1.5 15 0
      vertex 0 15 2
      vertex 1.5 15 0
    endloop
  endfacet
  facet normal 0 1 0
    outer loop
      vertex -2 15 0
      vertex 0 15 2
      vertex -1.5 15 0
    endloop
  endfacet
  facet normal 0 1 0
    outer loop
      vertex 0 15 2
      vertex -2 15 0
      vertex -2 15 26
    endloop
  endfacet
  facet normal 0 1 -0
    outer loop
      vertex 1.49278 15 -0.147025
      vertex -1.5 15 0
      vertex 1.5 15 0
    endloop
  endfacet
  facet normal 0 1 0
    outer loop
      vertex 1.49278 15 -0.147025
      vertex -1.49278 15 -0.147025
      vertex -1.5 15 0
    endloop
  endfacet
  facet normal 0 1 -0
    outer loop
      vertex 1.47118 15 -0.292635
      vertex -1.49278 15 -0.147025
      vertex 1.49278 15 -0.147025
    endloop
  endfacet
  facet normal 0 1 0
    outer loop
      vertex 1.47118 15 -0.292635
      vertex -1.47118 15 -0.292635
      vertex -1.49278 15 -0.147025
    endloop
  endfacet
  facet normal 0 1 -0
    outer loop
      vertex 1.43541 15 -0.435427
      vertex -1.47118 15 -0.292635
      vertex 1.47118 15 -0.292635
    endloop
  endfacet
  facet normal 0 1 0
    outer loop
      vertex 1.43541 15 -0.435427
      vertex -1.43541 15 -0.435427
      vertex -1.47118 15 -0.292635
    endloop
  endfacet
  facet normal 0 1 -0
    outer loop
      vertex 1.38582 15 -0.574024
      vertex -1.43541 15 -0.435427
      vertex 1.43541 15 -0.435427
    endloop
  endfacet
  facet normal 0 1 0
    outer loop
      vertex 1.38582 15 -0.574024
      vertex -1.38582 15 -0.574024
      vertex -1.43541 15 -0.435427
    endloop
  endfacet
  facet normal 0 1 -0
    outer loop
      vertex 1.32288 15 -0.707094
      vertex -1.38582 15 -0.574024
      vertex 1.38582 15 -0.574024
    endloop
  endfacet
  facet normal 0 1 0
    outer loop
      vertex 1.32288 15 -0.707094
      vertex -1.32288 15 -0.707094
      vertex -1.38582 15 -0.574024
    endloop
  endfacet
  facet normal 0 1 -0
    outer loop
      vertex 1.2472 15 -0.833355
      vertex -1.32288 15 -0.707094
      vertex 1.32288 15 -0.707094
    endloop
  endfacet
  facet normal 0 1 0
    outer loop
      vertex 1.2472 15 -0.833355
      vertex -1.2472 15 -0.833355
      vertex -1.32288 15 -0.707094
    endloop
  endfacet
  facet normal 0 1 -0
    outer loop
      vertex 1.15952 15 -0.95159
      vertex -1.2472 15 -0.833355
      vertex 1.2472 15 -0.833355
    endloop
  endfacet
  facet normal 0 1 0
    outer loop
      vertex 1.15952 15 -0.95159
      vertex -1.15952 15 -0.95159
      vertex -1.2472 15 -0.833355
    endloop
  endfacet
  facet normal 0 1 -0
    outer loop
      vertex 1.06066 15 -1.06066
      vertex -1.15952 15 -0.95159
      vertex 1.15952 15 -0.95159
    endloop
  endfacet
  facet normal 0 1 0
    outer loop
      vertex 1.06066 15 -1.06066
      vertex -1.06066 15 -1.06066
      vertex -1.15952 15 -0.95159
    endloop
  endfacet
  facet normal 0 1 -0
    outer loop
      vertex 0.95159 15 -1.15952
      vertex -1.06066 15 -1.06066
      vertex 1.06066 15 -1.06066
    endloop
  endfacet
  facet normal 0 1 0
    outer loop
      vertex 0.95159 15 -1.15952
      vertex -0.95159 15 -1.15952
      vertex -1.06066 15 -1.06066
    endloop
  endfacet
  facet normal 0 1 -0
    outer loop
      vertex 0.833355 15 -1.2472
      vertex -0.95159 15 -1.15952
      vertex 0.95159 15 -1.15952
    endloop
  endfacet
  facet normal 0 1 0
    outer loop
      vertex 0.833355 15 -1.2472
      vertex -0.833355 15 -1.2472
      vertex -0.95159 15 -1.15952
    endloop
  endfacet
  facet normal 0 1 -0
    outer loop
      vertex 0.707094 15 -1.32288
      vertex -0.833355 15 -1.2472
      vertex 0.833355 15 -1.2472
    endloop
  endfacet
  facet normal 0 1 0
    outer loop
      vertex 0.707094 15 -1.32288
      vertex -0.707094 15 -1.32288
      vertex -0.833355 15 -1.2472
    endloop
  endfacet
  facet normal 0 1 -0
    outer loop
      vertex 0.574024 15 -1.38582
      vertex -0.707094 15 -1.32288
      vertex 0.707094 15 -1.32288
    endloop
  endfacet
  facet normal 0 1 0
    outer loop
      vertex 0.574024 15 -1.38582
      vertex -0.574024 15 -1.38582
      vertex -0.707094 15 -1.32288
    endloop
  endfacet
  facet normal 0 1 -0
    outer loop
      vertex 0.435427 15 -1.43541
      vertex -0.574024 15 -1.38582
      vertex 0.574024 15 -1.38582
    endloop
  endfacet
  facet normal 0 1 0
    outer loop
      vertex 0.435427 15 -1.43541
      vertex -0.435427 15 -1.43541
      vertex -0.574024 15 -1.38582
    endloop
  endfacet
  facet normal 0 1 -0
    outer loop
      vertex 0.292635 15 -1.47118
      vertex -0.435427 15 -1.43541
      vertex 0.435427 15 -1.43541
    endloop
  endfacet
  facet normal 0 1 0
    outer loop
      vertex 0.292635 15 -1.47118
      vertex -0.292635 15 -1.47118
      vertex -0.435427 15 -1.43541
    endloop
  endfacet
  facet normal 0 1 -0
    outer loop
      vertex 0.147025 15 -1.49278
      vertex -0.292635 15 -1.47118
      vertex 0.292635 15 -1.47118
    endloop
  endfacet
  facet normal 0 1 0
    outer loop
      vertex 0.147025 15 -1.49278
      vertex -0.147025 15 -1.49278
      vertex -0.292635 15 -1.47118
    endloop
  endfacet
  facet normal -0 1 0
    outer loop
      vertex -0.147025 15 -1.49278
      vertex 0.147025 15 -1.49278
      vertex 0 15 -1.5
    endloop
  endfacet
  facet normal 0 -1 0
    outer loop
      vertex -1.49278 0 -0.147025
      vertex 1.5 0 0
      vertex -1.5 0 0
    endloop
  endfacet
  facet normal 0 -1 0
    outer loop
      vertex -1.49278 0 -0.147025
      vertex 1.49278 0 -0.147025
      vertex 1.5 0 0
    endloop
  endfacet
  facet normal 0 -1 0
    outer loop
      vertex -1.47118 0 -0.292635
      vertex 1.49278 0 -0.147025
      vertex -1.49278 0 -0.147025
    endloop
  endfacet
  facet normal 0 -1 0
    outer loop
      vertex -1.47118 0 -0.292635
      vertex 1.47118 0 -0.292635
      vertex 1.49278 0 -0.147025
    endloop
  endfacet
  facet normal 0 -1 0
    outer loop
      vertex -1.43541 0 -0.435427
      vertex 1.47118 0 -0.292635
      vertex -1.47118 0 -0.292635
    endloop
  endfacet
  facet normal 0 -1 0
    outer loop
      vertex -1.43541 0 -0.435427
      vertex 1.43541 0 -0.435427
      vertex 1.47118 0 -0.292635
    endloop
  endfacet
  facet normal 0 -1 0
    outer loop
      vertex -1.38582 0 -0.574024
      vertex 1.43541 0 -0.435427
      vertex -1.43541 0 -0.435427
    endloop
  endfacet
  facet normal 0 -1 0
    outer loop
      vertex -1.38582 0 -0.574024
      vertex 1.38582 0 -0.574024
      vertex 1.43541 0 -0.435427
    endloop
  endfacet
  facet normal 0 -1 0
    outer loop
      vertex -1.32288 0 -0.707094
      vertex 1.38582 0 -0.574024
      vertex -1.38582 0 -0.574024
    endloop
  endfacet
  facet normal 0 -1 0
    outer loop
      vertex -1.32288 0 -0.707094
      vertex 1.32288 0 -0.707094
      vertex 1.38582 0 -0.574024
    endloop
  endfacet
  facet normal 0 -1 0
    outer loop
      vertex -1.2472 0 -0.833355
      vertex 1.32288 0 -0.707094
      vertex -1.32288 0 -0.707094
    endloop
  endfacet
  facet normal 0 -1 0
    outer loop
      vertex -1.2472 0 -0.833355
      vertex 1.2472 0 -0.833355
      vertex 1.32288 0 -0.707094
    endloop
  endfacet
  facet normal 0 -1 0
    outer loop
      vertex -1.15952 0 -0.95159
      vertex 1.2472 0 -0.833355
      vertex -1.2472 0 -0.833355
    endloop
  endfacet
  facet normal 0 -1 0
    outer loop
      vertex -1.15952 0 -0.95159
      vertex 1.15952 0 -0.95159
      vertex 1.2472 0 -0.833355
    endloop
  endfacet
  facet normal 0 -1 0
    outer loop
      vertex -1.06066 0 -1.06066
      vertex 1.15952 0 -0.95159
      vertex -1.15952 0 -0.95159
    endloop
  endfacet
  facet normal 0 -1 0
    outer loop
      vertex -1.06066 0 -1.06066
      vertex 1.06066 0 -1.06066
      vertex 1.15952 0 -0.95159
    endloop
  endfacet
  facet normal 0 -1 0
    outer loop
      vertex -0.95159 0 -1.15952
      vertex 1.06066 0 -1.06066
      vertex -1.06066 0 -1.06066
    endloop
  endfacet
  facet normal 0 -1 0
    outer loop
      vertex -0.95159 0 -1.15952
      vertex 0.95159 0 -1.15952
      vertex 1.06066 0 -1.06066
    endloop
  endfacet
  facet normal 0 -1 0
    outer loop
      vertex -0.833355 0 -1.2472
      vertex 0.95159 0 -1.15952
      vertex -0.95159 0 -1.15952
    endloop
  endfacet
  facet normal 0 -1 0
    outer loop
      vertex -0.833355 0 -1.2472
      vertex 0.833355 0 -1.2472
      vertex 0.95159 0 -1.15952
    endloop
  endfacet
  facet normal 0 -1 0
    outer loop
      vertex -0.707094 0 -1.32288
      vertex 0.833355 0 -1.2472
      vertex -0.833355 0 -1.2472
    endloop
  endfacet
  facet normal 0 -1 0
    outer loop
      vertex -0.707094 0 -1.32288
      vertex 0.707094 0 -1.32288
      vertex 0.833355 0 -1.2472
    endloop
  endfacet
  facet normal 0 -1 0
    outer loop
      vertex -0.574024 0 -1.38582
      vertex 0.707094 0 -1.32288
      vertex -0.707094 0 -1.32288
    endloop
  endfacet
  facet normal 0 -1 0
    outer loop
      vertex -0.574024 0 -1.38582
      vertex 0.574024 0 -1.38582
      vertex 0.707094 0 -1.32288
    endloop
  endfacet
  facet normal 0 -1 0
    outer loop
      vertex -0.435427 0 -1.43541
      vertex 0.574024 0 -1.38582
      vertex -0.574024 0 -1.38582
    endloop
  endfacet
  facet normal 0 -1 0
    outer loop
      vertex -0.435427 0 -1.43541
      vertex 0.435427 0 -1.43541
      vertex 0.574024 0 -1.38582
    endloop
  endfacet
  facet normal 0 -1 0
    outer loop
      vertex -0.292635 0 -1.47118
      vertex 0.435427 0 -1.43541
      vertex -0.435427 0 -1.43541
    endloop
  endfacet
  facet normal 0 -1 0
    outer loop
      vertex -0.292635 0 -1.47118
      vertex 0.292635 0 -1.47118
      vertex 0.435427 0 -1.43541
    endloop
  endfacet
  facet normal 0 -1 0
    outer loop
      vertex -0.147025 0 -1.49278
      vertex 0.292635 0 -1.47118
      vertex -0.292635 0 -1.47118
    endloop
  endfacet
  facet normal 0 -1 0
    outer loop
      vertex -0.147025 0 -1.49278
      vertex 0.147025 0 -1.49278
      vertex 0.292635 0 -1.47118
    endloop
  endfacet
  facet normal -0 -1 0
    outer loop
      vertex 0.147025 0 -1.49278
      vertex -0.147025 0 -1.49278
      vertex 0 0 -1.5
    endloop
  endfacet
  facet normal 0 -1 0
    outer loop
      vertex -2 0 26
      vertex 0 0 2
      vertex 0 0 26
    endloop
  endfacet
  facet normal 0 -1 0
    outer loop
      vertex -2 0 0
      vertex 0 0 2
      vertex -2 0 26
    endloop
  endfacet
  facet normal 0 -1 0
    outer loop
      vertex -1.5 0 0
      vertex 0 0 2
      vertex -2 0 0
    endloop
  endfacet
  facet normal 0 -1 0
    outer loop
      vertex 1.5 0 0
      vertex 0 0 2
      vertex -1.5 0 0
    endloop
  endfacet
  facet normal 0 -1 0
    outer loop
      vertex 0 0 2
      vertex 1.5 0 0
      vertex 21.7 0 2
    endloop
  endfacet
  facet normal 0 -1 -0
    outer loop
      vertex 21.7 0 2
      vertex 1.5 0 0
      vertex 21.7 0 0
    endloop
  endfacet
  facet normal -0 0 1
    outer loop
      vertex -2 15 26
      vertex 0 0 26
      vertex 0 15 26
    endloop
  endfacet
  facet normal 0 0 1
    outer loop
      vertex 0 0 26
      vertex -2 15 26
      vertex -2 0 26
    endloop
  endfacet
  facet normal -1 0 0
    outer loop
      vertex -2 15 0
      vertex -2 13.5 16
      vertex -2 15 26
    endloop
  endfacet
  facet normal -1 0 0
    outer loop
      vertex -2 15 0
      vertex -2 13.4831 15.6569
      vertex -2 13.5 16
    endloop
  endfacet
  facet normal -1 0 0
    outer loop
      vertex -2 15 0
      vertex -2 13.4327 15.3172
      vertex -2 13.4831 15.6569
    endloop
  endfacet
  facet normal -1 0 0
    outer loop
      vertex -2 15 0
      vertex -2 13.3493 14.984
      vertex -2 13.4327 15.3172
    endloop
  endfacet
  facet normal -1 0 0
    outer loop
      vertex -2 15 0
      vertex -2 13.2336 14.6606
      vertex -2 13.3493 14.984
    endloop
  endfacet
  facet normal -1 0 0
    outer loop
      vertex -2 15 0
      vertex -2 13.0867 14.3501
      vertex -2 13.2336 14.6606
    endloop
  endfacet
  facet normal -1 0 0
    outer loop
      vertex -2 15 0
      vertex -2 12.9101 14.0555
      vertex -2 13.0867 14.3501
    endloop
  endfacet
  facet normal -1 0 0
    outer loop
      vertex -2 15 0
      vertex -2 12.7055 13.7796
      vertex -2 12.9101 14.0555
    endloop
  endfacet
  facet normal -1 0 0
    outer loop
      vertex -2 15 0
      vertex -2 12.4749 13.5251
      vertex -2 12.7055 13.7796
    endloop
  endfacet
  facet normal -1 0 0
    outer loop
      vertex -2 15 0
      vertex -2 12.2204 13.2945
      vertex -2 12.4749 13.5251
    endloop
  endfacet
  facet normal -1 0 0
    outer loop
      vertex -2 15 0
      vertex -2 11.9445 13.0899
      vertex -2 12.2204 13.2945
    endloop
  endfacet
  facet normal -1 0 0
    outer loop
      vertex -2 15 0
      vertex -2 11.6499 12.9133
      vertex -2 11.9445 13.0899
    endloop
  endfacet
  facet normal -1 0 0
    outer loop
      vertex -2 15 0
      vertex -2 11.3394 12.7664
      vertex -2 11.6499 12.9133
    endloop
  endfacet
  facet normal -1 0 0
    outer loop
      vertex -2 15 0
      vertex -2 11.016 12.6507
      vertex -2 11.3394 12.7664
    endloop
  endfacet
  facet normal -1 0 0
    outer loop
      vertex -2 15 0
      vertex -2 10.6828 12.5673
      vertex -2 11.016 12.6507
    endloop
  endfacet
  facet normal -1 0 0
    outer loop
      vertex -2 15 0
      vertex -2 10.3431 12.5169
      vertex -2 10.6828 12.5673
    endloop
  endfacet
  facet normal -1 0 0
    outer loop
      vertex -2 15 0
      vertex -2 10 12.5
      vertex -2 10.3431 12.5169
    endloop
  endfacet
  facet normal -1 0 0
    outer loop
      vertex -2 15 0
      vertex -2 5 12.5
      vertex -2 10 12.5
    endloop
  endfacet
  facet normal -1 0 0
    outer loop
      vertex -2 0 0
      vertex -2 5 12.5
      vertex -2 15 0
    endloop
  endfacet
  facet normal -1 -0 0
    outer loop
      vertex -2 5 12.5
      vertex -2 0 0
      vertex -2 4.65694 12.5169
    endloop
  endfacet
  facet normal -1 -0 0
    outer loop
      vertex -2 4.65694 12.5169
      vertex -2 0 0
      vertex -2 4.31718 12.5673
    endloop
  endfacet
  facet normal -1 -0 0
    outer loop
      vertex -2 4.31718 12.5673
      vertex -2 0 0
      vertex -2 3.984 12.6507
    endloop
  endfacet
  facet normal -1 -0 0
    outer loop
      vertex -2 3.984 12.6507
      vertex -2 0 0
      vertex -2 3.66061 12.7664
    endloop
  endfacet
  facet normal -1 -0 0
    outer loop
      vertex -2 3.66061 12.7664
      vertex -2 0 0
      vertex -2 3.35011 12.9133
    endloop
  endfacet
  facet normal -1 -0 0
    outer loop
      vertex -2 3.35011 12.9133
      vertex -2 0 0
      vertex -2 3.0555 13.0899
    endloop
  endfacet
  facet normal -1 -0 0
    outer loop
      vertex -2 3.0555 13.0899
      vertex -2 0 0
      vertex -2 2.77962 13.2945
    endloop
  endfacet
  facet normal -1 -0 0
    outer loop
      vertex -2 1.51685 15.6569
      vertex -2 0 0
      vertex -2 1.5 16
    endloop
  endfacet
  facet normal -1 -0 0
    outer loop
      vertex -2 1.56725 15.3172
      vertex -2 0 0
      vertex -2 1.51685 15.6569
    endloop
  endfacet
  facet normal -1 -0 0
    outer loop
      vertex -2 1.65071 14.984
      vertex -2 0 0
      vertex -2 1.56725 15.3172
    endloop
  endfacet
  facet normal -1 -0 0
    outer loop
      vertex -2 1.76642 14.6606
      vertex -2 0 0
      vertex -2 1.65071 14.984
    endloop
  endfacet
  facet normal -1 -0 0
    outer loop
      vertex -2 1.91327 14.3501
      vertex -2 0 0
      vertex -2 1.76642 14.6606
    endloop
  endfacet
  facet normal -1 -0 0
    outer loop
      vertex -2 2.08986 14.0555
      vertex -2 0 0
      vertex -2 1.91327 14.3501
    endloop
  endfacet
  facet normal -1 -0 0
    outer loop
      vertex -2 2.29446 13.7796
      vertex -2 0 0
      vertex -2 2.08986 14.0555
    endloop
  endfacet
  facet normal -1 -0 0
    outer loop
      vertex -2 2.52513 13.5251
      vertex -2 0 0
      vertex -2 2.29446 13.7796
    endloop
  endfacet
  facet normal -1 -0 0
    outer loop
      vertex -2 2.77962 13.2945
      vertex -2 0 0
      vertex -2 2.52513 13.5251
    endloop
  endfacet
  facet normal -1 0 0
    outer loop
      vertex -2 13.4831 16.3431
      vertex -2 15 26
      vertex -2 13.5 16
    endloop
  endfacet
  facet normal -1 0 0
    outer loop
      vertex -2 13.4327 16.6828
      vertex -2 15 26
      vertex -2 13.4831 16.3431
    endloop
  endfacet
  facet normal -1 0 0
    outer loop
      vertex -2 13.3493 17.016
      vertex -2 15 26
      vertex -2 13.4327 16.6828
    endloop
  endfacet
  facet normal -1 0 0
    outer loop
      vertex -2 13.2336 17.3394
      vertex -2 15 26
      vertex -2 13.3493 17.016
    endloop
  endfacet
  facet normal -1 0 0
    outer loop
      vertex -2 13.0867 17.6499
      vertex -2 15 26
      vertex -2 13.2336 17.3394
    endloop
  endfacet
  facet normal -1 0 0
    outer loop
      vertex -2 12.9101 17.9445
      vertex -2 15 26
      vertex -2 13.0867 17.6499
    endloop
  endfacet
  facet normal -1 0 0
    outer loop
      vertex -2 12.7055 18.2204
      vertex -2 15 26
      vertex -2 12.9101 17.9445
    endloop
  endfacet
  facet normal -1 0 0
    outer loop
      vertex -2 12.4749 18.4749
      vertex -2 15 26
      vertex -2 12.7055 18.2204
    endloop
  endfacet
  facet normal -1 0 0
    outer loop
      vertex -2 12.2204 18.7055
      vertex -2 15 26
      vertex -2 12.4749 18.4749
    endloop
  endfacet
  facet normal -1 0 0
    outer loop
      vertex -2 11.9445 18.9101
      vertex -2 15 26
      vertex -2 12.2204 18.7055
    endloop
  endfacet
  facet normal -1 0 0
    outer loop
      vertex -2 11.6499 19.0867
      vertex -2 15 26
      vertex -2 11.9445 18.9101
    endloop
  endfacet
  facet normal -1 0 0
    outer loop
      vertex -2 11.3394 19.2336
      vertex -2 15 26
      vertex -2 11.6499 19.0867
    endloop
  endfacet
  facet normal -1 0 0
    outer loop
      vertex -2 11.016 19.3493
      vertex -2 15 26
      vertex -2 11.3394 19.2336
    endloop
  endfacet
  facet normal -1 0 0
    outer loop
      vertex -2 10.6828 19.4327
      vertex -2 15 26
      vertex -2 11.016 19.3493
    endloop
  endfacet
  facet normal -1 0 0
    outer loop
      vertex -2 10.3431 19.4831
      vertex -2 15 26
      vertex -2 10.6828 19.4327
    endloop
  endfacet
  facet normal -1 0 0
    outer loop
      vertex -2 10 19.5
      vertex -2 15 26
      vertex -2 10.3431 19.4831
    endloop
  endfacet
  facet normal -1 0 0
    outer loop
      vertex -2 5 19.5
      vertex -2 15 26
      vertex -2 10 19.5
    endloop
  endfacet
  facet normal -1 0 0
    outer loop
      vertex -2 0 26
      vertex -2 5 19.5
      vertex -2 4.65694 19.4831
    endloop
  endfacet
  facet normal -1 0 0
    outer loop
      vertex -2 0 26
      vertex -2 4.65694 19.4831
      vertex -2 4.31718 19.4327
    endloop
  endfacet
  facet normal -1 0 0
    outer loop
      vertex -2 0 26
      vertex -2 4.31718 19.4327
      vertex -2 3.984 19.3493
    endloop
  endfacet
  facet normal -1 0 0
    outer loop
      vertex -2 0 26
      vertex -2 3.984 19.3493
      vertex -2 3.66061 19.2336
    endloop
  endfacet
  facet normal -1 0 0
    outer loop
      vertex -2 0 26
      vertex -2 3.66061 19.2336
      vertex -2 3.35011 19.0867
    endloop
  endfacet
  facet normal -1 0 0
    outer loop
      vertex -2 0 26
      vertex -2 1.5 16
      vertex -2 0 0
    endloop
  endfacet
  facet normal -1 0 0
    outer loop
      vertex -2 5 19.5
      vertex -2 0 26
      vertex -2 15 26
    endloop
  endfacet
  facet normal -1 0 0
    outer loop
      vertex -2 3.0555 18.9101
      vertex -2 0 26
      vertex -2 3.35011 19.0867
    endloop
  endfacet
  facet normal -1 0 0
    outer loop
      vertex -2 2.77962 18.7055
      vertex -2 0 26
      vertex -2 3.0555 18.9101
    endloop
  endfacet
  facet normal -1 0 0
    outer loop
      vertex -2 2.52513 18.4749
      vertex -2 0 26
      vertex -2 2.77962 18.7055
    endloop
  endfacet
  facet normal -1 0 0
    outer loop
      vertex -2 2.29446 18.2204
      vertex -2 0 26
      vertex -2 2.52513 18.4749
    endloop
  endfacet
  facet normal -1 0 0
    outer loop
      vertex -2 2.08986 17.9445
      vertex -2 0 26
      vertex -2 2.29446 18.2204
    endloop
  endfacet
  facet normal -1 0 0
    outer loop
      vertex -2 1.91327 17.6499
      vertex -2 0 26
      vertex -2 2.08986 17.9445
    endloop
  endfacet
  facet normal -1 0 0
    outer loop
      vertex -2 1.76642 17.3394
      vertex -2 0 26
      vertex -2 1.91327 17.6499
    endloop
  endfacet
  facet normal -1 0 0
    outer loop
      vertex -2 1.65071 17.016
      vertex -2 0 26
      vertex -2 1.76642 17.3394
    endloop
  endfacet
  facet normal -1 0 0
    outer loop
      vertex -2 1.56725 16.6828
      vertex -2 0 26
      vertex -2 1.65071 17.016
    endloop
  endfacet
  facet normal -1 0 0
    outer loop
      vertex -2 1.51685 16.3431
      vertex -2 0 26
      vertex -2 1.56725 16.6828
    endloop
  endfacet
  facet normal -1 0 0
    outer loop
      vertex -2 1.5 16
      vertex -2 0 26
      vertex -2 1.51685 16.3431
    endloop
  endfacet
  facet normal 0.989176 0 -0.146736
    outer loop
      vertex 1.49278 0 -0.147025
      vertex 1.47118 15 -0.292635
      vertex 1.49278 15 -0.147025
    endloop
  endfacet
  facet normal 0.989176 0 -0.146736
    outer loop
      vertex 1.47118 15 -0.292635
      vertex 1.49278 0 -0.147025
      vertex 1.47118 0 -0.292635
    endloop
  endfacet
  facet normal 0.998796 0 -0.0490482
    outer loop
      vertex 1.5 0 0
      vertex 1.49278 15 -0.147025
      vertex 1.5 15 0
    endloop
  endfacet
  facet normal 0.998796 0 -0.0490482
    outer loop
      vertex 1.49278 15 -0.147025
      vertex 1.5 0 0
      vertex 1.49278 0 -0.147025
    endloop
  endfacet
  facet normal 0.970027 0 -0.242996
    outer loop
      vertex 1.47118 0 -0.292635
      vertex 1.43541 15 -0.435427
      vertex 1.47118 15 -0.292635
    endloop
  endfacet
  facet normal 0.970027 0 -0.242996
    outer loop
      vertex 1.43541 15 -0.435427
      vertex 1.47118 0 -0.292635
      vertex 1.43541 0 -0.435427
    endloop
  endfacet
  facet normal -0.59566 0 -0.803237
    outer loop
      vertex -0.95159 0 -1.15952
      vertex -0.833355 15 -1.2472
      vertex -0.833355 0 -1.2472
    endloop
  endfacet
  facet normal -0.59566 0 -0.803237
    outer loop
      vertex -0.833355 15 -1.2472
      vertex -0.95159 0 -1.15952
      vertex -0.95159 15 -1.15952
    endloop
  endfacet
  facet normal 0.242996 0 -0.970027
    outer loop
      vertex 0.292635 0 -1.47118
      vertex 0.435427 15 -1.43541
      vertex 0.435427 0 -1.43541
    endloop
  endfacet
  facet normal 0.242996 0 -0.970027
    outer loop
      vertex 0.435427 15 -1.43541
      vertex 0.292635 0 -1.47118
      vertex 0.292635 15 -1.47118
    endloop
  endfacet
  facet normal -0.903983 0 -0.427569
    outer loop
      vertex -1.32288 0 -0.707094
      vertex -1.38582 15 -0.574024
      vertex -1.32288 15 -0.707094
    endloop
  endfacet
  facet normal -0.903983 -0 -0.427569
    outer loop
      vertex -1.38582 15 -0.574024
      vertex -1.32288 0 -0.707094
      vertex -1.38582 0 -0.574024
    endloop
  endfacet
  facet normal -0.970027 0 -0.242996
    outer loop
      vertex -1.43541 0 -0.435427
      vertex -1.47118 15 -0.292635
      vertex -1.43541 15 -0.435427
    endloop
  endfacet
  facet normal -0.970027 -0 -0.242996
    outer loop
      vertex -1.47118 15 -0.292635
      vertex -1.43541 0 -0.435427
      vertex -1.47118 0 -0.292635
    endloop
  endfacet
  facet normal 0.0490482 0 -0.998796
    outer loop
      vertex 0 0 -1.5
      vertex 0.147025 15 -1.49278
      vertex 0.147025 0 -1.49278
    endloop
  endfacet
  facet normal 0.0490482 0 -0.998796
    outer loop
      vertex 0.147025 15 -1.49278
      vertex 0 0 -1.5
      vertex 0 15 -1.5
    endloop
  endfacet
  facet normal 0.146736 0 -0.989176
    outer loop
      vertex 0.147025 0 -1.49278
      vertex 0.292635 15 -1.47118
      vertex 0.292635 0 -1.47118
    endloop
  endfacet
  facet normal 0.146736 0 -0.989176
    outer loop
      vertex 0.292635 15 -1.47118
      vertex 0.147025 0 -1.49278
      vertex 0.147025 15 -1.49278
    endloop
  endfacet
  facet normal 0.427569 0 -0.903983
    outer loop
      vertex 0.574024 0 -1.38582
      vertex 0.707094 15 -1.32288
      vertex 0.707094 0 -1.32288
    endloop
  endfacet
  facet normal 0.427569 0 -0.903983
    outer loop
      vertex 0.707094 15 -1.32288
      vertex 0.574024 0 -1.38582
      vertex 0.574024 15 -1.38582
    endloop
  endfacet
  facet normal -0.514113 0 -0.857722
    outer loop
      vertex -0.833355 0 -1.2472
      vertex -0.707094 15 -1.32288
      vertex -0.707094 0 -1.32288
    endloop
  endfacet
  facet normal -0.514113 0 -0.857722
    outer loop
      vertex -0.707094 15 -1.32288
      vertex -0.833355 0 -1.2472
      vertex -0.833355 15 -1.2472
    endloop
  endfacet
  facet normal 0.59566 0 -0.803237
    outer loop
      vertex 0.833355 0 -1.2472
      vertex 0.95159 15 -1.15952
      vertex 0.95159 0 -1.15952
    endloop
  endfacet
  facet normal 0.59566 0 -0.803237
    outer loop
      vertex 0.95159 15 -1.15952
      vertex 0.833355 0 -1.2472
      vertex 0.833355 15 -1.2472
    endloop
  endfacet
  facet normal -0.989176 0 -0.146736
    outer loop
      vertex -1.47118 0 -0.292635
      vertex -1.49278 15 -0.147025
      vertex -1.47118 15 -0.292635
    endloop
  endfacet
  facet normal -0.989176 -0 -0.146736
    outer loop
      vertex -1.49278 15 -0.147025
      vertex -1.47118 0 -0.292635
      vertex -1.49278 0 -0.147025
    endloop
  endfacet
  facet normal -0.857722 0 -0.514113
    outer loop
      vertex -1.2472 0 -0.833355
      vertex -1.32288 15 -0.707094
      vertex -1.2472 15 -0.833355
    endloop
  endfacet
  facet normal -0.857722 -0 -0.514113
    outer loop
      vertex -1.32288 15 -0.707094
      vertex -1.2472 0 -0.833355
      vertex -1.32288 0 -0.707094
    endloop
  endfacet
  facet normal -0.146736 0 -0.989176
    outer loop
      vertex -0.292635 0 -1.47118
      vertex -0.147025 15 -1.49278
      vertex -0.147025 0 -1.49278
    endloop
  endfacet
  facet normal -0.146736 0 -0.989176
    outer loop
      vertex -0.147025 15 -1.49278
      vertex -0.292635 0 -1.47118
      vertex -0.292635 15 -1.47118
    endloop
  endfacet
  facet normal 0.803237 0 -0.59566
    outer loop
      vertex 1.2472 0 -0.833355
      vertex 1.15952 15 -0.95159
      vertex 1.2472 15 -0.833355
    endloop
  endfacet
  facet normal 0.803237 0 -0.59566
    outer loop
      vertex 1.15952 15 -0.95159
      vertex 1.2472 0 -0.833355
      vertex 1.15952 0 -0.95159
    endloop
  endfacet
  facet normal 0.514113 0 -0.857722
    outer loop
      vertex 0.707094 0 -1.32288
      vertex 0.833355 15 -1.2472
      vertex 0.833355 0 -1.2472
    endloop
  endfacet
  facet normal 0.514113 0 -0.857722
    outer loop
      vertex 0.833355 15 -1.2472
      vertex 0.707094 0 -1.32288
      vertex 0.707094 15 -1.32288
    endloop
  endfacet
  facet normal 0.740935 0 -0.671577
    outer loop
      vertex 1.15952 0 -0.95159
      vertex 1.06066 15 -1.06066
      vertex 1.15952 15 -0.95159
    endloop
  endfacet
  facet normal 0.740935 0 -0.671577
    outer loop
      vertex 1.06066 15 -1.06066
      vertex 1.15952 0 -0.95159
      vertex 1.06066 0 -1.06066
    endloop
  endfacet
  facet normal -0.0490482 0 -0.998796
    outer loop
      vertex -0.147025 0 -1.49278
      vertex 0 15 -1.5
      vertex 0 0 -1.5
    endloop
  endfacet
  facet normal -0.0490482 0 -0.998796
    outer loop
      vertex 0 15 -1.5
      vertex -0.147025 0 -1.49278
      vertex -0.147025 15 -1.49278
    endloop
  endfacet
  facet normal -0.740935 0 -0.671577
    outer loop
      vertex -1.06066 0 -1.06066
      vertex -1.15952 15 -0.95159
      vertex -1.06066 15 -1.06066
    endloop
  endfacet
  facet normal -0.740935 -0 -0.671577
    outer loop
      vertex -1.15952 15 -0.95159
      vertex -1.06066 0 -1.06066
      vertex -1.15952 0 -0.95159
    endloop
  endfacet
  facet normal 0.941546 0 -0.336885
    outer loop
      vertex 1.43541 0 -0.435427
      vertex 1.38582 15 -0.574024
      vertex 1.43541 15 -0.435427
    endloop
  endfacet
  facet normal 0.941546 0 -0.336885
    outer loop
      vertex 1.38582 15 -0.574024
      vertex 1.43541 0 -0.435427
      vertex 1.38582 0 -0.574024
    endloop
  endfacet
  facet normal 0.671577 0 -0.740935
    outer loop
      vertex 0.95159 0 -1.15952
      vertex 1.06066 15 -1.06066
      vertex 1.06066 0 -1.06066
    endloop
  endfacet
  facet normal 0.671577 0 -0.740935
    outer loop
      vertex 1.06066 15 -1.06066
      vertex 0.95159 0 -1.15952
      vertex 0.95159 15 -1.15952
    endloop
  endfacet
  facet normal -0.242996 0 -0.970027
    outer loop
      vertex -0.435427 0 -1.43541
      vertex -0.292635 15 -1.47118
      vertex -0.292635 0 -1.47118
    endloop
  endfacet
  facet normal -0.242996 0 -0.970027
    outer loop
      vertex -0.292635 15 -1.47118
      vertex -0.435427 0 -1.43541
      vertex -0.435427 15 -1.43541
    endloop
  endfacet
  facet normal -0.427569 0 -0.903983
    outer loop
      vertex -0.707094 0 -1.32288
      vertex -0.574024 15 -1.38582
      vertex -0.574024 0 -1.38582
    endloop
  endfacet
  facet normal -0.427569 0 -0.903983
    outer loop
      vertex -0.574024 15 -1.38582
      vertex -0.707094 0 -1.32288
      vertex -0.707094 15 -1.32288
    endloop
  endfacet
  facet normal 0.903983 0 -0.427569
    outer loop
      vertex 1.38582 0 -0.574024
      vertex 1.32288 15 -0.707094
      vertex 1.38582 15 -0.574024
    endloop
  endfacet
  facet normal 0.903983 0 -0.427569
    outer loop
      vertex 1.32288 15 -0.707094
      vertex 1.38582 0 -0.574024
      vertex 1.32288 0 -0.707094
    endloop
  endfacet
  facet normal -0.671577 0 -0.740935
    outer loop
      vertex -1.06066 0 -1.06066
      vertex -0.95159 15 -1.15952
      vertex -0.95159 0 -1.15952
    endloop
  endfacet
  facet normal -0.671577 0 -0.740935
    outer loop
      vertex -0.95159 15 -1.15952
      vertex -1.06066 0 -1.06066
      vertex -1.06066 15 -1.06066
    endloop
  endfacet
  facet normal 0.857722 0 -0.514113
    outer loop
      vertex 1.32288 0 -0.707094
      vertex 1.2472 15 -0.833355
      vertex 1.32288 15 -0.707094
    endloop
  endfacet
  facet normal 0.857722 0 -0.514113
    outer loop
      vertex 1.2472 15 -0.833355
      vertex 1.32288 0 -0.707094
      vertex 1.2472 0 -0.833355
    endloop
  endfacet
  facet normal 0.336885 0 -0.941546
    outer loop
      vertex 0.435427 0 -1.43541
      vertex 0.574024 15 -1.38582
      vertex 0.574024 0 -1.38582
    endloop
  endfacet
  facet normal 0.336885 0 -0.941546
    outer loop
      vertex 0.574024 15 -1.38582
      vertex 0.435427 0 -1.43541
      vertex 0.435427 15 -1.43541
    endloop
  endfacet
  facet normal -0.336885 0 -0.941546
    outer loop
      vertex -0.574024 0 -1.38582
      vertex -0.435427 15 -1.43541
      vertex -0.435427 0 -1.43541
    endloop
  endfacet
  facet normal -0.336885 0 -0.941546
    outer loop
      vertex -0.435427 15 -1.43541
      vertex -0.574024 0 -1.38582
      vertex -0.574024 15 -1.38582
    endloop
  endfacet
  facet normal -0.941546 0 -0.336885
    outer loop
      vertex -1.38582 0 -0.574024
      vertex -1.43541 15 -0.435427
      vertex -1.38582 15 -0.574024
    endloop
  endfacet
  facet normal -0.941546 -0 -0.336885
    outer loop
      vertex -1.43541 15 -0.435427
      vertex -1.38582 0 -0.574024
      vertex -1.43541 0 -0.435427
    endloop
  endfacet
  facet normal -0.803237 0 -0.59566
    outer loop
      vertex -1.15952 0 -0.95159
      vertex -1.2472 15 -0.833355
      vertex -1.15952 15 -0.95159
    endloop
  endfacet
  facet normal -0.803237 -0 -0.59566
    outer loop
      vertex -1.2472 15 -0.833355
      vertex -1.15952 0 -0.95159
      vertex -1.2472 0 -0.833355
    endloop
  endfacet
  facet normal -0.998796 0 -0.0490482
    outer loop
      vertex -1.49278 0 -0.147025
      vertex -1.5 15 0
      vertex -1.49278 15 -0.147025
    endloop
  endfacet
  facet normal -0.998796 -0 -0.0490482
    outer loop
      vertex -1.5 15 0
      vertex -1.49278 0 -0.147025
      vertex -1.5 0 0
    endloop
  endfacet
  facet normal 0 -0.803237 -0.595659
    outer loop
      vertex -2 12.9101 17.9445
      vertex 0 12.7055 18.2204
      vertex -2 12.7055 18.2204
    endloop
  endfacet
  facet normal 0 -0.803237 -0.595659
    outer loop
      vertex 0 12.7055 18.2204
      vertex -2 12.9101 17.9445
      vertex 0 12.9101 17.9445
    endloop
  endfacet
  facet normal 0 0.0492029 -0.998789
    outer loop
      vertex -2 4.65694 19.4831
      vertex 0 5 19.5
      vertex 0 4.65694 19.4831
    endloop
  endfacet
  facet normal 0 0.0492029 -0.998789
    outer loop
      vertex 0 5 19.5
      vertex -2 4.65694 19.4831
      vertex -2 5 19.5
    endloop
  endfacet
  facet normal 0 -0.595659 0.803237
    outer loop
      vertex -2 12.2204 13.2945
      vertex 0 11.9445 13.0899
      vertex 0 12.2204 13.2945
    endloop
  endfacet
  facet normal 0 -0.595659 0.803237
    outer loop
      vertex 0 11.9445 13.0899
      vertex -2 12.2204 13.2945
      vertex -2 11.9445 13.0899
    endloop
  endfacet
  facet normal 0 0.427661 -0.903939
    outer loop
      vertex -2 3.35011 19.0867
      vertex 0 3.66061 19.2336
      vertex 0 3.35011 19.0867
    endloop
  endfacet
  facet normal 0 0.427661 -0.903939
    outer loop
      vertex 0 3.66061 19.2336
      vertex -2 3.35011 19.0867
      vertex -2 3.66061 19.2336
    endloop
  endfacet
  facet normal 0 -0.803237 0.595659
    outer loop
      vertex -2 12.7055 13.7796
      vertex 0 12.9101 14.0555
      vertex -2 12.9101 14.0555
    endloop
  endfacet
  facet normal 0 -0.803237 0.595659
    outer loop
      vertex 0 12.9101 14.0555
      vertex -2 12.7055 13.7796
      vertex 0 12.7055 13.7796
    endloop
  endfacet
  facet normal 0 -0.0491971 -0.998789
    outer loop
      vertex -2 10 19.5
      vertex 0 10.3431 19.4831
      vertex 0 10 19.5
    endloop
  endfacet
  facet normal -0 -0.0491971 -0.998789
    outer loop
      vertex 0 10.3431 19.4831
      vertex -2 10 19.5
      vertex -2 10.3431 19.4831
    endloop
  endfacet
  facet normal -0 0.242823 0.970071
    outer loop
      vertex -2 4.31718 12.5673
      vertex 0 3.984 12.6507
      vertex 0 4.31718 12.5673
    endloop
  endfacet
  facet normal 0 0.242823 0.970071
    outer loop
      vertex 0 3.984 12.6507
      vertex -2 4.31718 12.5673
      vertex -2 3.984 12.6507
    endloop
  endfacet
  facet normal 0 -0.903939 0.427661
    outer loop
      vertex -2 13.0867 14.3501
      vertex 0 13.2336 14.6606
      vertex -2 13.2336 14.6606
    endloop
  endfacet
  facet normal 0 -0.903939 0.427661
    outer loop
      vertex 0 13.2336 14.6606
      vertex -2 13.0867 14.3501
      vertex 0 13.0867 14.3501
    endloop
  endfacet
  facet normal 0 -0.903939 -0.427661
    outer loop
      vertex -2 13.2336 17.3394
      vertex 0 13.0867 17.6499
      vertex -2 13.0867 17.6499
    endloop
  endfacet
  facet normal 0 -0.903939 -0.427661
    outer loop
      vertex 0 13.0867 17.6499
      vertex -2 13.2336 17.3394
      vertex 0 13.2336 17.3394
    endloop
  endfacet
  facet normal 0 -0.336853 0.941557
    outer loop
      vertex -2 11.3394 12.7664
      vertex 0 11.016 12.6507
      vertex 0 11.3394 12.7664
    endloop
  endfacet
  facet normal 0 -0.336853 0.941557
    outer loop
      vertex 0 11.016 12.6507
      vertex -2 11.3394 12.7664
      vertex -2 11.016 12.6507
    endloop
  endfacet
  facet normal 0 0.857711 0.514132
    outer loop
      vertex 0 2.08986 14.0555
      vertex -2 1.91327 14.3501
      vertex 0 1.91327 14.3501
    endloop
  endfacet
  facet normal 0 0.857711 0.514132
    outer loop
      vertex -2 1.91327 14.3501
      vertex 0 2.08986 14.0555
      vertex -2 2.08986 14.0555
    endloop
  endfacet
  facet normal 0 0.941548 0.336879
    outer loop
      vertex 0 1.76642 14.6606
      vertex -2 1.65071 14.984
      vertex 0 1.65071 14.984
    endloop
  endfacet
  facet normal 0 0.941548 0.336879
    outer loop
      vertex -2 1.65071 14.984
      vertex 0 1.76642 14.6606
      vertex -2 1.76642 14.6606
    endloop
  endfacet
  facet normal 0 -0.998789 0.0491971
    outer loop
      vertex -2 13.4831 15.6569
      vertex 0 13.5 16
      vertex -2 13.5 16
    endloop
  endfacet
  facet normal 0 -0.998789 0.0491971
    outer loop
      vertex 0 13.5 16
      vertex -2 13.4831 15.6569
      vertex 0 13.4831 15.6569
    endloop
  endfacet
  facet normal 0 -0.427661 -0.903939
    outer loop
      vertex -2 11.3394 19.2336
      vertex 0 11.6499 19.0867
      vertex 0 11.3394 19.2336
    endloop
  endfacet
  facet normal -0 -0.427661 -0.903939
    outer loop
      vertex 0 11.6499 19.0867
      vertex -2 11.3394 19.2336
      vertex -2 11.6499 19.0867
    endloop
  endfacet
  facet normal 0 0.146734 -0.989176
    outer loop
      vertex -2 4.31718 19.4327
      vertex 0 4.65694 19.4831
      vertex 0 4.31718 19.4327
    endloop
  endfacet
  facet normal 0 0.146734 -0.989176
    outer loop
      vertex 0 4.65694 19.4831
      vertex -2 4.31718 19.4327
      vertex -2 4.65694 19.4831
    endloop
  endfacet
  facet normal 0 -0.741046 0.671454
    outer loop
      vertex -2 12.4749 13.5251
      vertex 0 12.7055 13.7796
      vertex -2 12.7055 13.7796
    endloop
  endfacet
  facet normal 0 -0.741046 0.671454
    outer loop
      vertex 0 12.7055 13.7796
      vertex -2 12.4749 13.5251
      vertex 0 12.4749 13.5251
    endloop
  endfacet
  facet normal 0 -0.14676 0.989172
    outer loop
      vertex -2 10.6828 12.5673
      vertex 0 10.3431 12.5169
      vertex 0 10.6828 12.5673
    endloop
  endfacet
  facet normal 0 -0.14676 0.989172
    outer loop
      vertex 0 10.3431 12.5169
      vertex -2 10.6828 12.5673
      vertex -2 10.3431 12.5169
    endloop
  endfacet
  facet normal 0 -0.989172 0.14676
    outer loop
      vertex -2 13.4327 15.3172
      vertex 0 13.4831 15.6569
      vertex -2 13.4831 15.6569
    endloop
  endfacet
  facet normal 0 -0.989172 0.14676
    outer loop
      vertex 0 13.4831 15.6569
      vertex -2 13.4327 15.3172
      vertex 0 13.4327 15.3172
    endloop
  endfacet
  facet normal 0 0.989172 0.14676
    outer loop
      vertex 0 1.56725 15.3172
      vertex -2 1.51685 15.6569
      vertex 0 1.51685 15.6569
    endloop
  endfacet
  facet normal 0 0.989172 0.14676
    outer loop
      vertex -2 1.51685 15.6569
      vertex 0 1.56725 15.3172
      vertex -2 1.56725 15.3172
    endloop
  endfacet
  facet normal -0 0.595687 0.803217
    outer loop
      vertex -2 3.0555 13.0899
      vertex 0 2.77962 13.2945
      vertex 0 3.0555 13.0899
    endloop
  endfacet
  facet normal 0 0.595687 0.803217
    outer loop
      vertex 0 2.77962 13.2945
      vertex -2 3.0555 13.0899
      vertex -2 2.77962 13.2945
    endloop
  endfacet
  facet normal -0 0 1
    outer loop
      vertex -2 10 12.5
      vertex 0 5 12.5
      vertex 0 10 12.5
    endloop
  endfacet
  facet normal 0 0 1
    outer loop
      vertex 0 5 12.5
      vertex -2 10 12.5
      vertex -2 5 12.5
    endloop
  endfacet
  facet normal 0 -0.970074 -0.24281
    outer loop
      vertex -2 13.4327 16.6828
      vertex 0 13.3493 17.016
      vertex -2 13.3493 17.016
    endloop
  endfacet
  facet normal 0 -0.970074 -0.24281
    outer loop
      vertex 0 13.3493 17.016
      vertex -2 13.4327 16.6828
      vertex 0 13.4327 16.6828
    endloop
  endfacet
  facet normal 0 0.903996 -0.427542
    outer loop
      vertex 0 1.76642 17.3394
      vertex -2 1.91327 17.6499
      vertex 0 1.91327 17.6499
    endloop
  endfacet
  facet normal 0 0.903996 -0.427542
    outer loop
      vertex -2 1.91327 17.6499
      vertex 0 1.76642 17.3394
      vertex -2 1.76642 17.3394
    endloop
  endfacet
  facet normal 0 -0.24281 0.970074
    outer loop
      vertex -2 11.016 12.6507
      vertex 0 10.6828 12.5673
      vertex 0 11.016 12.6507
    endloop
  endfacet
  facet normal 0 -0.24281 0.970074
    outer loop
      vertex 0 10.6828 12.5673
      vertex -2 11.016 12.6507
      vertex -2 10.6828 12.5673
    endloop
  endfacet
  facet normal 0 -0.941557 0.336853
    outer loop
      vertex -2 13.2336 14.6606
      vertex 0 13.3493 14.984
      vertex -2 13.3493 14.984
    endloop
  endfacet
  facet normal 0 -0.941557 0.336853
    outer loop
      vertex 0 13.3493 14.984
      vertex -2 13.2336 14.6606
      vertex 0 13.2336 14.6606
    endloop
  endfacet
  facet normal 0 0.857711 -0.514132
    outer loop
      vertex 0 1.91327 17.6499
      vertex -2 2.08986 17.9445
      vertex 0 2.08986 17.9445
    endloop
  endfacet
  facet normal 0 0.857711 -0.514132
    outer loop
      vertex -2 2.08986 17.9445
      vertex 0 1.91327 17.6499
      vertex -2 1.91327 17.6499
    endloop
  endfacet
  facet normal 0 0.51414 -0.857706
    outer loop
      vertex -2 3.0555 18.9101
      vertex 0 3.35011 19.0867
      vertex 0 3.0555 18.9101
    endloop
  endfacet
  facet normal 0 0.51414 -0.857706
    outer loop
      vertex 0 3.35011 19.0867
      vertex -2 3.0555 18.9101
      vertex -2 3.35011 19.0867
    endloop
  endfacet
  facet normal 0 -0.970074 0.24281
    outer loop
      vertex -2 13.3493 14.984
      vertex 0 13.4327 15.3172
      vertex -2 13.4327 15.3172
    endloop
  endfacet
  facet normal 0 -0.970074 0.24281
    outer loop
      vertex 0 13.4327 15.3172
      vertex -2 13.3493 14.984
      vertex 0 13.3493 14.984
    endloop
  endfacet
  facet normal 0 0.595687 -0.803217
    outer loop
      vertex -2 2.77962 18.7055
      vertex 0 3.0555 18.9101
      vertex 0 2.77962 18.7055
    endloop
  endfacet
  facet normal 0 0.595687 -0.803217
    outer loop
      vertex 0 3.0555 18.9101
      vertex -2 2.77962 18.7055
      vertex -2 3.0555 18.9101
    endloop
  endfacet
  facet normal 0 0 -1
    outer loop
      vertex -2 5 19.5
      vertex 0 10 19.5
      vertex 0 5 19.5
    endloop
  endfacet
  facet normal -0 0 -1
    outer loop
      vertex 0 10 19.5
      vertex -2 5 19.5
      vertex -2 10 19.5
    endloop
  endfacet
  facet normal -0 0.0492029 0.998789
    outer loop
      vertex -2 5 12.5
      vertex 0 4.65694 12.5169
      vertex 0 5 12.5
    endloop
  endfacet
  facet normal 0 0.0492029 0.998789
    outer loop
      vertex 0 4.65694 12.5169
      vertex -2 5 12.5
      vertex -2 4.65694 12.5169
    endloop
  endfacet
  facet normal 0 -0.941557 -0.336853
    outer loop
      vertex -2 13.3493 17.016
      vertex 0 13.2336 17.3394
      vertex -2 13.2336 17.3394
    endloop
  endfacet
  facet normal 0 -0.941557 -0.336853
    outer loop
      vertex 0 13.2336 17.3394
      vertex -2 13.3493 17.016
      vertex 0 13.3493 17.016
    endloop
  endfacet
  facet normal 0 -0.427661 0.903939
    outer loop
      vertex -2 11.6499 12.9133
      vertex 0 11.3394 12.7664
      vertex 0 11.6499 12.9133
    endloop
  endfacet
  facet normal 0 -0.427661 0.903939
    outer loop
      vertex 0 11.3394 12.7664
      vertex -2 11.6499 12.9133
      vertex -2 11.3394 12.7664
    endloop
  endfacet
  facet normal -0 0.427661 0.903939
    outer loop
      vertex -2 3.66061 12.7664
      vertex 0 3.35011 12.9133
      vertex 0 3.66061 12.7664
    endloop
  endfacet
  facet normal 0 0.427661 0.903939
    outer loop
      vertex 0 3.35011 12.9133
      vertex -2 3.66061 12.7664
      vertex -2 3.35011 12.9133
    endloop
  endfacet
  facet normal 0 -0.857698 0.514153
    outer loop
      vertex -2 12.9101 14.0555
      vertex 0 13.0867 14.3501
      vertex -2 13.0867 14.3501
    endloop
  endfacet
  facet normal 0 -0.857698 0.514153
    outer loop
      vertex 0 13.0867 14.3501
      vertex -2 12.9101 14.0555
      vertex 0 12.9101 14.0555
    endloop
  endfacet
  facet normal 0 -0.998789 -0.0491971
    outer loop
      vertex -2 13.5 16
      vertex 0 13.4831 16.3431
      vertex -2 13.4831 16.3431
    endloop
  endfacet
  facet normal 0 -0.998789 -0.0491971
    outer loop
      vertex 0 13.4831 16.3431
      vertex -2 13.5 16
      vertex 0 13.5 16
    endloop
  endfacet
  facet normal 0 0.970033 -0.242974
    outer loop
      vertex 0 1.56725 16.6828
      vertex -2 1.65071 17.016
      vertex 0 1.65071 17.016
    endloop
  endfacet
  facet normal 0 0.970033 -0.242974
    outer loop
      vertex -2 1.65071 17.016
      vertex 0 1.56725 16.6828
      vertex -2 1.56725 16.6828
    endloop
  endfacet
  facet normal 0 -0.24281 -0.970074
    outer loop
      vertex -2 10.6828 19.4327
      vertex 0 11.016 19.3493
      vertex 0 10.6828 19.4327
    endloop
  endfacet
  facet normal -0 -0.24281 -0.970074
    outer loop
      vertex 0 11.016 19.3493
      vertex -2 10.6828 19.4327
      vertex -2 11.016 19.3493
    endloop
  endfacet
  facet normal -0 0.671469 0.741033
    outer loop
      vertex -2 2.77962 13.2945
      vertex 0 2.52513 13.5251
      vertex 0 2.77962 13.2945
    endloop
  endfacet
  facet normal 0 0.671469 0.741033
    outer loop
      vertex 0 2.52513 13.5251
      vertex -2 2.77962 13.2945
      vertex -2 2.52513 13.5251
    endloop
  endfacet
  facet normal 0 -0.857698 -0.514153
    outer loop
      vertex -2 13.0867 17.6499
      vertex 0 12.9101 17.9445
      vertex -2 12.9101 17.9445
    endloop
  endfacet
  facet normal 0 -0.857698 -0.514153
    outer loop
      vertex 0 12.9101 17.9445
      vertex -2 13.0867 17.6499
      vertex 0 13.0867 17.6499
    endloop
  endfacet
  facet normal 0 -0.989172 -0.14676
    outer loop
      vertex -2 13.4831 16.3431
      vertex 0 13.4327 16.6828
      vertex -2 13.4327 16.6828
    endloop
  endfacet
  facet normal 0 -0.989172 -0.14676
    outer loop
      vertex 0 13.4327 16.6828
      vertex -2 13.4831 16.3431
      vertex 0 13.4831 16.3431
    endloop
  endfacet
  facet normal 0 0.740944 -0.671566
    outer loop
      vertex 0 2.29446 18.2204
      vertex -2 2.52513 18.4749
      vertex 0 2.52513 18.4749
    endloop
  endfacet
  facet normal 0 0.740944 -0.671566
    outer loop
      vertex -2 2.52513 18.4749
      vertex 0 2.29446 18.2204
      vertex -2 2.29446 18.2204
    endloop
  endfacet
  facet normal 0 -0.741046 -0.671454
    outer loop
      vertex -2 12.7055 18.2204
      vertex 0 12.4749 18.4749
      vertex -2 12.4749 18.4749
    endloop
  endfacet
  facet normal 0 -0.741046 -0.671454
    outer loop
      vertex 0 12.4749 18.4749
      vertex -2 12.7055 18.2204
      vertex 0 12.7055 18.2204
    endloop
  endfacet
  facet normal 0 0.740944 0.671566
    outer loop
      vertex 0 2.52513 13.5251
      vertex -2 2.29446 13.7796
      vertex 0 2.29446 13.7796
    endloop
  endfacet
  facet normal 0 0.740944 0.671566
    outer loop
      vertex -2 2.29446 13.7796
      vertex 0 2.52513 13.5251
      vertex -2 2.52513 13.5251
    endloop
  endfacet
  facet normal -0 0.336862 0.941554
    outer loop
      vertex -2 3.984 12.6507
      vertex 0 3.66061 12.7664
      vertex 0 3.984 12.6507
    endloop
  endfacet
  facet normal 0 0.336862 0.941554
    outer loop
      vertex 0 3.66061 12.7664
      vertex -2 3.984 12.6507
      vertex -2 3.66061 12.7664
    endloop
  endfacet
  facet normal 0 0.998796 -0.0490519
    outer loop
      vertex 0 1.5 16
      vertex -2 1.51685 16.3431
      vertex 0 1.51685 16.3431
    endloop
  endfacet
  facet normal 0 0.998796 -0.0490519
    outer loop
      vertex -2 1.51685 16.3431
      vertex 0 1.5 16
      vertex -2 1.5 16
    endloop
  endfacet
  facet normal 0 -0.671454 -0.741046
    outer loop
      vertex -2 12.2204 18.7055
      vertex 0 12.4749 18.4749
      vertex 0 12.2204 18.7055
    endloop
  endfacet
  facet normal -0 -0.671454 -0.741046
    outer loop
      vertex 0 12.4749 18.4749
      vertex -2 12.2204 18.7055
      vertex -2 12.4749 18.4749
    endloop
  endfacet
  facet normal 0 -0.514153 0.857698
    outer loop
      vertex -2 11.9445 13.0899
      vertex 0 11.6499 12.9133
      vertex 0 11.9445 13.0899
    endloop
  endfacet
  facet normal 0 -0.514153 0.857698
    outer loop
      vertex 0 11.6499 12.9133
      vertex -2 11.9445 13.0899
      vertex -2 11.6499 12.9133
    endloop
  endfacet
  facet normal 0 -0.671454 0.741046
    outer loop
      vertex -2 12.4749 13.5251
      vertex 0 12.2204 13.2945
      vertex 0 12.4749 13.5251
    endloop
  endfacet
  facet normal 0 -0.671454 0.741046
    outer loop
      vertex 0 12.2204 13.2945
      vertex -2 12.4749 13.5251
      vertex -2 12.2204 13.2945
    endloop
  endfacet
  facet normal 0 -0.514153 -0.857698
    outer loop
      vertex -2 11.6499 19.0867
      vertex 0 11.9445 18.9101
      vertex 0 11.6499 19.0867
    endloop
  endfacet
  facet normal -0 -0.514153 -0.857698
    outer loop
      vertex 0 11.9445 18.9101
      vertex -2 11.6499 19.0867
      vertex -2 11.9445 18.9101
    endloop
  endfacet
  facet normal 0 0.671469 -0.741033
    outer loop
      vertex -2 2.52513 18.4749
      vertex 0 2.77962 18.7055
      vertex 0 2.52513 18.4749
    endloop
  endfacet
  facet normal 0 0.671469 -0.741033
    outer loop
      vertex 0 2.77962 18.7055
      vertex -2 2.52513 18.4749
      vertex -2 2.77962 18.7055
    endloop
  endfacet
  facet normal 0 0.941548 -0.336879
    outer loop
      vertex 0 1.65071 17.016
      vertex -2 1.76642 17.3394
      vertex 0 1.76642 17.3394
    endloop
  endfacet
  facet normal 0 0.941548 -0.336879
    outer loop
      vertex -2 1.76642 17.3394
      vertex 0 1.65071 17.016
      vertex -2 1.65071 17.016
    endloop
  endfacet
  facet normal -0 0.146734 0.989176
    outer loop
      vertex -2 4.65694 12.5169
      vertex 0 4.31718 12.5673
      vertex 0 4.65694 12.5169
    endloop
  endfacet
  facet normal 0 0.146734 0.989176
    outer loop
      vertex 0 4.31718 12.5673
      vertex -2 4.65694 12.5169
      vertex -2 4.31718 12.5673
    endloop
  endfacet
  facet normal 0 0.970033 0.242974
    outer loop
      vertex 0 1.65071 14.984
      vertex -2 1.56725 15.3172
      vertex 0 1.56725 15.3172
    endloop
  endfacet
  facet normal 0 0.970033 0.242974
    outer loop
      vertex -2 1.56725 15.3172
      vertex 0 1.65071 14.984
      vertex -2 1.65071 14.984
    endloop
  endfacet
  facet normal 0 -0.336853 -0.941557
    outer loop
      vertex -2 11.016 19.3493
      vertex 0 11.3394 19.2336
      vertex 0 11.016 19.3493
    endloop
  endfacet
  facet normal -0 -0.336853 -0.941557
    outer loop
      vertex 0 11.3394 19.2336
      vertex -2 11.016 19.3493
      vertex -2 11.3394 19.2336
    endloop
  endfacet
  facet normal 0 0.242823 -0.970071
    outer loop
      vertex -2 3.984 19.3493
      vertex 0 4.31718 19.4327
      vertex 0 3.984 19.3493
    endloop
  endfacet
  facet normal 0 0.242823 -0.970071
    outer loop
      vertex 0 4.31718 19.4327
      vertex -2 3.984 19.3493
      vertex -2 4.31718 19.4327
    endloop
  endfacet
  facet normal 0 -0.0491971 0.998789
    outer loop
      vertex -2 10.3431 12.5169
      vertex 0 10 12.5
      vertex 0 10.3431 12.5169
    endloop
  endfacet
  facet normal 0 -0.0491971 0.998789
    outer loop
      vertex 0 10 12.5
      vertex -2 10.3431 12.5169
      vertex -2 10 12.5
    endloop
  endfacet
  facet normal 0 -0.595659 -0.803237
    outer loop
      vertex -2 11.9445 18.9101
      vertex 0 12.2204 18.7055
      vertex 0 11.9445 18.9101
    endloop
  endfacet
  facet normal -0 -0.595659 -0.803237
    outer loop
      vertex 0 12.2204 18.7055
      vertex -2 11.9445 18.9101
      vertex -2 12.2204 18.7055
    endloop
  endfacet
  facet normal 0 -0.14676 -0.989172
    outer loop
      vertex -2 10.3431 19.4831
      vertex 0 10.6828 19.4327
      vertex 0 10.3431 19.4831
    endloop
  endfacet
  facet normal -0 -0.14676 -0.989172
    outer loop
      vertex 0 10.6828 19.4327
      vertex -2 10.3431 19.4831
      vertex -2 10.6828 19.4327
    endloop
  endfacet
  facet normal 0 0.803237 0.595659
    outer loop
      vertex 0 2.29446 13.7796
      vertex -2 2.08986 14.0555
      vertex 0 2.08986 14.0555
    endloop
  endfacet
  facet normal 0 0.803237 0.595659
    outer loop
      vertex -2 2.08986 14.0555
      vertex 0 2.29446 13.7796
      vertex -2 2.29446 13.7796
    endloop
  endfacet
  facet normal 0 0.989172 -0.14676
    outer loop
      vertex 0 1.51685 16.3431
      vertex -2 1.56725 16.6828
      vertex 0 1.56725 16.6828
    endloop
  endfacet
  facet normal 0 0.989172 -0.14676
    outer loop
      vertex -2 1.56725 16.6828
      vertex 0 1.51685 16.3431
      vertex -2 1.51685 16.3431
    endloop
  endfacet
  facet normal 0 0.998796 0.0490519
    outer loop
      vertex 0 1.51685 15.6569
      vertex -2 1.5 16
      vertex 0 1.5 16
    endloop
  endfacet
  facet normal 0 0.998796 0.0490519
    outer loop
      vertex -2 1.5 16
      vertex 0 1.51685 15.6569
      vertex -2 1.51685 15.6569
    endloop
  endfacet
  facet normal 0 0.903996 0.427542
    outer loop
      vertex 0 1.91327 14.3501
      vertex -2 1.76642 14.6606
      vertex 0 1.76642 14.6606
    endloop
  endfacet
  facet normal 0 0.903996 0.427542
    outer loop
      vertex -2 1.76642 14.6606
      vertex 0 1.91327 14.3501
      vertex -2 1.91327 14.3501
    endloop
  endfacet
  facet normal 0 0.803237 -0.595659
    outer loop
      vertex 0 2.08986 17.9445
      vertex -2 2.29446 18.2204
      vertex 0 2.29446 18.2204
    endloop
  endfacet
  facet normal 0 0.803237 -0.595659
    outer loop
      vertex -2 2.29446 18.2204
      vertex 0 2.08986 17.9445
      vertex -2 2.08986 17.9445
    endloop
  endfacet
  facet normal 0 0.336862 -0.941554
    outer loop
      vertex -2 3.66061 19.2336
      vertex 0 3.984 19.3493
      vertex 0 3.66061 19.2336
    endloop
  endfacet
  facet normal 0 0.336862 -0.941554
    outer loop
      vertex 0 3.984 19.3493
      vertex -2 3.66061 19.2336
      vertex -2 3.984 19.3493
    endloop
  endfacet
  facet normal -0 0.51414 0.857706
    outer loop
      vertex -2 3.35011 12.9133
      vertex 0 3.0555 13.0899
      vertex 0 3.35011 12.9133
    endloop
  endfacet
  facet normal 0 0.51414 0.857706
    outer loop
      vertex 0 3.0555 13.0899
      vertex -2 3.35011 12.9133
      vertex -2 3.0555 13.0899
    endloop
  endfacet
endsolid OpenSCAD_Model
